<?xml version="1.0"   encoding="UTF-8" standalone="no"?> <svg width = "50px" height="40px" fill = "#FFFFFF" xmlns="http://www.w3.org/2000/svg" viewBox="0 0 512 512"><title>Dumbbell</title><g id="Dumbbell"><path d="M493.9182,219.0477H463.8455V168.7068a27.0228,27.0228,0,0,0-26.991-26.9909H370.5364a27.0227,27.0227,0,0,0-26.9909,26.9909v50.3409H168.4545V168.7068a27.0227,27.0227,0,0,0-26.9909-26.9909H75.1455a27.0228,27.0228,0,0,0-26.991,26.9909v50.3409H18.0818A11.1757,11.1757,0,0,0,6.9091,230.2205V281.78a11.1757,11.1757,0,0,0,11.1727,11.1728H48.1545v50.3409a27.0228,27.0228,0,0,0,26.991,26.9909h66.3181a27.0227,27.0227,0,0,0,26.9909-26.9909V292.9523h175.091v50.3409a27.0227,27.0227,0,0,0,26.9909,26.9909h66.3181a27.0228,27.0228,0,0,0,26.991-26.9909V292.9523h30.0727A11.1757,11.1757,0,0,0,505.0909,281.78v-51.559A11.1757,11.1757,0,0,0,493.9182,219.0477ZM29.2545,270.6068V241.3932h18.9v29.2136Zm116.8546,72.6864a4.648,4.648,0,0,1-4.6455,4.6454H75.1455A4.648,4.648,0,0,1,70.5,343.2932V168.7068a4.648,4.648,0,0,1,4.6455-4.6454h66.3181a4.648,4.648,0,0,1,4.6455,4.6454V343.2932ZM343.4,270.6068H168.4545V241.3932H343.4Zm98.1,72.6864a4.648,4.648,0,0,1-4.6455,4.6454H370.5364a4.648,4.648,0,0,1-4.6455-4.6454V168.7068a4.648,4.648,0,0,1,4.6455-4.6454h66.3181a4.648,4.648,0,0,1,4.6455,4.6454V343.2932Zm41.2455-72.6864h-18.9V241.3932h18.9Z"/></g></svg>